<svg width="60" height="58" viewBox="0 0 60 58" fill="none" xmlns="http://www.w3.org/2000/svg">
<path d="M37.3042 7.7805C40.7085 12.3073 38.7226 16.7398 37.3042 18.3903C44.6801 17.2586 43.2146 7.54472 41.5598 2.82927L42.269 0L35.8858 2.12193C31.9141 0.424368 26.1929 1.41461 23.8288 2.12193C19.857 3.81949 18.3913 8.95933 18.1549 11.3171C17.5875 16.9756 23.1195 22.1626 25.9565 24.0488C35.0348 28.0097 41.5598 35.1301 43.6875 38.1951C47.6592 41.0244 46.288 51.6341 45.106 56.5853C57.1631 49.5122 60 36.3089 60 31.1219C60 12.4488 50.5435 4.47965 45.8152 2.82925C49.3614 13.439 44.6331 21.691 42.269 23.3414C48.5103 23.2386 51.0163 17.1685 51.4891 14.1463C60.5674 28.2927 54.3261 41.2601 50.0706 45.9756C49.3614 36.0731 43.4511 29.4715 40.1413 27.5853L32.3398 21.9268L28.0842 19.0975C25.2473 17.6829 19.6097 12.7978 21.7009 7.7805C23.4567 3.56791 27.8612 3.53651 29.5025 3.5366C30.9211 3.53662 33.8998 3.25367 37.3042 7.7805Z" fill="#D9D9D9"/>
<path d="M19.5733 21.9268C14.4668 16.8341 14.1363 6.36582 14.6091 2.12193C-10.2147 19.0975 1.13331 48.8049 15.3182 56.5853C11.772 45.9756 15.3182 36.0732 18.1552 33.9512C12.4812 35.3659 11.0628 38.1951 8.93474 43.1463C7.51657 41.0244 6.09809 37.4878 5.38854 33.9512C4.679 30.4146 4.44286 25.935 4.67928 24.0488C7.51623 14.1463 9.17113 13.439 10.3532 11.3171C10.3532 14.1463 11.1873 17.0449 12.4809 19.8049C13.4756 21.9268 18.8641 29 23.8288 31.8293C33.7581 39.6098 33.7581 40.3171 35.1766 41.7317C38.581 44.561 38.4864 48.5691 38.0136 50.2195C37.4462 53.6146 33.0489 54.4634 30.9212 54.4634C27.375 54.4634 24.0652 50.6911 23.1195 48.8049C20.85 45.4098 22.1739 39.8455 23.1195 37.4878C16.8782 40.3171 17.682 47.1545 18.8641 50.2195V58H34.4674C42.9782 55.878 41.1318 44.8293 40.8505 43.1463C39.5679 35.4717 26.6657 27.5854 19.5733 21.9268Z" fill="#D9D9D9"/>
</svg>
