<svg width="68" height="24" viewBox="0 0 68 24" fill="none" xmlns="http://www.w3.org/2000/svg">
<path d="M0 17.936C1.664 21.552 5.408 23.024 9.504 23.024C13.856 23.024 17.12 20.784 17.12 16.912C17.12 12.816 14.048 11.472 10.624 10.64L8.928 13.712C11.712 14.32 13.44 14.896 13.44 16.976C13.44 18.928 11.712 19.696 9.568 19.696C6.944 19.696 3.712 18.48 2.56 15.344L0 17.936Z" fill="#CB492B"/>
<path d="M19.5245 19.344C19.5245 21.584 21.0605 23.024 23.6205 23.024C26.8845 23.024 28.3885 20.592 28.8685 18.544V16.72C28.8685 18.832 27.2685 20.24 24.9005 20.24C23.5885 20.24 22.9805 19.696 22.9805 18.8C22.9805 18 23.5245 17.456 24.8685 16.848L28.8685 15.056L23.5885 14.8C21.0605 15.792 19.5245 17.136 19.5245 19.344Z" fill="#CB492B"/>
<path d="M6.912 13.264L8.928 13.712L10.624 10.64L8.224 10.064C5.888 9.48801 4.416 8.81601 4.416 6.92801C4.416 5.29601 5.888 4.33601 7.936 4.33601C10.56 4.33601 12.864 5.48801 14.048 8.14401L16.768 5.55201C15.232 2.60801 12.096 0.976013 8.16 0.976013C4.128 0.976013 0.64 3.15201 0.64 7.18401C0.64 11.248 3.872 12.624 6.912 13.264Z" fill="#D8D1D0"/>
<path fill-rule="evenodd" clip-rule="evenodd" d="M23.5885 14.8L28.8045 12.592C28.6765 11.024 27.9725 9.96801 25.8285 9.96801C23.7485 9.96801 22.1165 11.184 21.2205 12.816L19.0765 10.256C20.2925 8.59201 22.7245 6.80001 26.1805 6.80001C30.0525 6.80001 32.2285 9.00801 32.2285 12.848L28.8685 15.056L23.5885 14.8Z" fill="#D8D1D0"/>
<path d="M32.2285 18.704V12.848L28.8685 15.056V16.72V18.544V19.696C28.8685 21.936 30.1805 22.704 31.8445 22.704H34.0525V19.632H33.0605C32.4845 19.632 32.2285 19.408 32.2285 18.704Z" fill="#CB492B"/>
<path d="M36.0245 19.344C36.0245 21.584 37.5605 23.024 40.1205 23.024C43.3845 23.024 44.8885 20.592 45.3685 18.544V16.72C45.3685 18.832 43.7685 20.24 41.4005 20.24C40.0885 20.24 39.4805 19.696 39.4805 18.8C39.4805 18 40.0245 17.456 41.3685 16.848L45.3685 15.056L40.0885 14.8C37.5605 15.792 36.0245 17.136 36.0245 19.344Z" fill="#CB492B"/>
<path fill-rule="evenodd" clip-rule="evenodd" d="M40.0885 14.8L45.3045 12.592C45.1765 11.024 44.4725 9.96801 42.3285 9.96801C40.2485 9.96801 38.6165 11.184 37.7205 12.816L35.5765 10.256C36.7925 8.59201 39.2245 6.80001 42.6805 6.80001C46.5525 6.80001 48.7285 9.00801 48.7285 12.848L45.3685 15.056L40.0885 14.8Z" fill="#D8D1D0"/>
<path d="M48.7285 18.704V12.848L45.3685 15.056V16.72V18.544V19.696C45.3685 21.936 46.6805 22.704 48.3445 22.704H50.5525V19.632H49.5605C48.9845 19.632 48.7285 19.408 48.7285 18.704Z" fill="#CB492B"/>
<path d="M63.5653 7.12001L59.3092 11.28L59.2132 15.408L63.7573 22.704H67.9492L61.6453 13.264L67.9492 7.12001H63.5653Z" fill="#CB492B"/>
<path d="M59.3092 11.28L56.7492 14.096L56.8773 17.712L59.2132 15.408L59.3092 11.28Z" fill="#CB492B"/>
<path d="M56.8773 17.712L56.7492 14.096L53.2933 17.712V21.476L56.8773 17.712Z" fill="#CB492B"/>
<path fill-rule="evenodd" clip-rule="evenodd" d="M53.2933 17.712V1.26401H56.8773V11.088L56.7492 14.096L53.2933 17.712Z" fill="#D8D1D0"/>
<path d="M53.2933 22.704H56.8773V17.712L53.2933 21.476V22.704Z" fill="#CB492B"/>
</svg>
