<svg width="68" height="23" viewBox="0 0 68 23" fill="none" xmlns="http://www.w3.org/2000/svg">
<g id="Saak">
<path d="M0 16.96C1.664 20.576 5.408 22.048 9.504 22.048C13.856 22.048 17.12 19.808 17.12 15.936C17.12 11.84 14.048 10.496 10.624 9.664L8.928 12.736C11.712 13.344 13.44 13.92 13.44 16C13.44 17.952 11.712 18.72 9.568 18.72C6.944 18.72 3.712 17.504 2.56 14.368L0 16.96Z" fill="#CB492B"/>
<path d="M19.5245 18.368C19.5245 20.608 21.0605 22.048 23.6205 22.048C26.8845 22.048 28.3885 19.616 28.8685 17.568V15.744C28.8685 17.856 27.2685 19.264 24.9005 19.264C23.5885 19.264 22.9805 18.72 22.9805 17.824C22.9805 17.024 23.5245 16.48 24.8685 15.872L28.8685 14.08L23.5885 13.824C21.0605 14.816 19.5245 16.16 19.5245 18.368Z" fill="#CB492B"/>
<path d="M6.912 12.288L8.928 12.736L10.624 9.664L8.224 9.088C5.888 8.512 4.416 7.84 4.416 5.952C4.416 4.32 5.888 3.36 7.936 3.36C10.56 3.36 12.864 4.512 14.048 7.168L16.768 4.576C15.232 1.632 12.096 0 8.16 0C4.128 0 0.64 2.176 0.64 6.208C0.64 10.272 3.872 11.648 6.912 12.288Z" fill="#D8D1D0"/>
<path fill-rule="evenodd" clip-rule="evenodd" d="M23.5885 13.824L28.8045 11.616C28.6765 10.048 27.9725 8.992 25.8285 8.992C23.7485 8.992 22.1165 10.208 21.2205 11.84L19.0765 9.28C20.2925 7.616 22.7245 5.824 26.1805 5.824C30.0525 5.824 32.2285 8.032 32.2285 11.872L28.8685 14.08L23.5885 13.824Z" fill="#D8D1D0"/>
<path d="M32.2285 17.728V11.872L28.8685 14.08V15.744V17.568V18.72C28.8685 20.96 30.1805 21.728 31.8445 21.728H34.0525V18.656H33.0605C32.4845 18.656 32.2285 18.432 32.2285 17.728Z" fill="#CB492B"/>
<path d="M36.0245 18.368C36.0245 20.608 37.5605 22.048 40.1205 22.048C43.3845 22.048 44.8885 19.616 45.3685 17.568V15.744C45.3685 17.856 43.7685 19.264 41.4005 19.264C40.0885 19.264 39.4805 18.72 39.4805 17.824C39.4805 17.024 40.0245 16.48 41.3685 15.872L45.3685 14.08L40.0885 13.824C37.5605 14.816 36.0245 16.16 36.0245 18.368Z" fill="#CB492B"/>
<path fill-rule="evenodd" clip-rule="evenodd" d="M40.0885 13.824L45.3045 11.616C45.1765 10.048 44.4725 8.992 42.3285 8.992C40.2485 8.992 38.6165 10.208 37.7205 11.84L35.5765 9.28C36.7925 7.616 39.2245 5.824 42.6805 5.824C46.5525 5.824 48.7285 8.032 48.7285 11.872L45.3685 14.08L40.0885 13.824Z" fill="#D8D1D0"/>
<path d="M48.7285 17.728V11.872L45.3685 14.08V15.744V17.568V18.72C45.3685 20.96 46.6805 21.728 48.3445 21.728H50.5525V18.656H49.5605C48.9845 18.656 48.7285 18.432 48.7285 17.728Z" fill="#CB492B"/>
<path d="M63.5653 6.144L59.3092 10.304L59.2132 14.432L63.7573 21.728H67.9492L61.6453 12.288L67.9492 6.144H63.5653Z" fill="#CB492B"/>
<path d="M59.3092 10.304L56.7492 13.12L56.8773 16.736L59.2132 14.432L59.3092 10.304Z" fill="#CB492B"/>
<path d="M56.8773 16.736L56.7492 13.12L53.2933 16.736V20.5L56.8773 16.736Z" fill="#CB492B"/>
<path fill-rule="evenodd" clip-rule="evenodd" d="M53.2933 16.736V0.288H56.8773V10.112L56.7492 13.12L53.2933 16.736Z" fill="#D8D1D0"/>
<path d="M53.2933 21.728H56.8773V16.736L53.2933 20.5V21.728Z" fill="#CB492B"/>
</g>
</svg>
