<svg width="21" height="22" viewBox="0 0 21 22" fill="none" xmlns="http://www.w3.org/2000/svg">
<path d="M10.7144 4.25333C12.7263 4.25333 14.0834 5.14556 14.8573 5.89111L17.8811 2.86C16.0239 1.08778 13.6073 0 10.7144 0C6.52388 0 2.90482 2.46889 1.14291 6.06222L4.60721 8.82445C5.47626 6.17222 7.88103 4.25333 10.7144 4.25333Z" fill="#EA4335"/>
<path d="M21 11.2444C21 10.34 20.9286 9.68 20.7738 8.99556H10.7142V13.0778H16.619C16.5 14.0922 15.8571 15.62 14.4285 16.6467L17.8095 19.3356C19.8333 17.4167 21 14.5933 21 11.2444Z" fill="#4285F4"/>
<path d="M4.61907 13.1756C4.39288 12.4911 4.26193 11.7578 4.26193 11C4.26193 10.2422 4.39292 9.50889 4.60721 8.82445L1.14291 6.06222C0.416712 7.55333 0 9.22778 0 11C0 12.7722 0.416669 14.4467 1.14286 15.9378L4.61907 13.1756Z" fill="#FBBC05"/>
<path d="M10.7145 22C13.6074 22 16.0357 21.0222 17.8095 19.3356L14.4285 16.6467C13.5238 17.2944 12.3098 17.7467 10.7145 17.7467C7.8812 17.7467 5.47622 15.8278 4.61907 13.1756L1.15498 15.9378C2.91689 19.5311 6.52405 22 10.7145 22Z" fill="#34A853"/>
</svg>
