<svg width="33" height="33" viewBox="0 0 33 33" fill="none" xmlns="http://www.w3.org/2000/svg">
<path d="M16.3333 0.5C7.51075 0.5 0.333374 7.67581 0.333374 16.5C0.333374 25.3242 7.51075 32.5 16.3333 32.5C25.1559 32.5 32.3334 25.3242 32.3334 16.5C32.3334 7.67581 25.1559 0.5 16.3333 0.5ZM16.3333 2.67581C22.9624 2.67581 28.5156 7.36452 29.8495 13.5984H21.4575C20.4414 11.8145 18.5269 10.6064 16.3333 10.6064C14.1398 10.6064 12.2237 11.8145 11.2091 13.5984H2.81558C4.15267 7.36452 9.70269 2.67581 16.3333 2.67581ZM14.5737 30.2113C8.23822 29.4032 3.22687 24.2903 2.57687 17.9065H10.6189C11.1108 19.9097 12.6237 21.5129 14.5737 22.1258V30.2113ZM14.5737 19.3548C14.0156 19.0097 13.5688 18.5048 13.2898 17.9065C13.0898 17.479 12.9785 17.0032 12.9785 16.5C12.9785 15.2597 13.6527 14.179 14.6527 13.5984C15.1479 13.3129 15.7204 13.1452 16.3333 13.1452C16.9446 13.1452 17.5188 13.3129 18.0107 13.5984C19.0124 14.179 19.6866 15.2597 19.6866 16.5C19.6866 17.0032 19.5753 17.479 19.3752 17.9065C19.1365 18.4258 18.7656 18.871 18.3091 19.2064C17.7543 19.6113 17.072 19.8548 16.3333 19.8548C15.6882 19.8548 15.085 19.671 14.5737 19.3548ZM18.3091 30.1839V22.0452C20.1543 21.3855 21.5721 19.8339 22.0479 17.9065H30.0882C29.4479 24.2177 24.543 29.2871 18.3091 30.1839Z" fill="#D8D1D0"/>
</svg>
