<svg width="44" height="43" viewBox="0 0 44 43" fill="none" xmlns="http://www.w3.org/2000/svg">
<path d="M16.4999 1V6.5M27.4999 1V6.5M16.4999 35.8333V41.3333M27.4999 35.8333V41.3333M36.6666 15.6667H42.1666M36.6666 24.8333H42.1666M1.83325 15.6667H7.33325M1.83325 24.8333H7.33325M10.9999 6.5H32.9999C35.025 6.5 36.6666 8.14162 36.6666 10.1667V32.1667C36.6666 34.1917 35.025 35.8333 32.9999 35.8333H10.9999C8.97487 35.8333 7.33325 34.1917 7.33325 32.1667V10.1667C7.33325 8.14162 8.97487 6.5 10.9999 6.5ZM16.4999 15.6667H27.4999V26.6667H16.4999V15.6667Z" stroke="white" stroke-width="2" stroke-linecap="round" stroke-linejoin="round"/>
</svg>
