<svg width="40" height="39" viewBox="0 0 40 39" fill="none" xmlns="http://www.w3.org/2000/svg">
<path d="M24.2808 9.37859C23.9241 9.74251 23.7243 10.2318 23.7243 10.7414C23.7243 11.251 23.9241 11.7403 24.2808 12.1042L27.3958 15.2192C27.7597 15.5759 28.249 15.7757 28.7586 15.7757C29.2682 15.7757 29.7575 15.5759 30.1214 15.2192L37.4611 7.87951C38.44 10.0428 38.7364 12.4531 38.3108 14.7892C37.8852 17.1253 36.7577 19.2761 35.0787 20.9552C33.3996 22.6342 31.2488 23.7617 28.9127 24.1873C26.5766 24.6129 24.1663 24.3165 22.003 23.3376L8.5502 36.7904C7.77569 37.5649 6.72524 38 5.62991 38C4.53459 38 3.48413 37.5649 2.70962 36.7904C1.93511 36.0159 1.5 34.9654 1.5 33.8701C1.5 32.7748 1.93511 31.7243 2.70962 30.9498L16.1624 17.497C15.1835 15.3337 14.8871 12.9234 15.3127 10.5873C15.7383 8.25125 16.8658 6.10038 18.5448 4.42134C20.2239 2.7423 22.3747 1.61484 24.7108 1.1892C27.0469 0.763569 29.4572 1.05998 31.6205 2.03893L24.3003 9.35912L24.2808 9.37859Z" stroke="white" stroke-width="2" stroke-linecap="round" stroke-linejoin="round"/>
</svg>
