<svg width="14" height="13" viewBox="0 0 14 13" fill="none" xmlns="http://www.w3.org/2000/svg">
<path d="M0.656006 1H2.83782L4.29964 8.01381C4.34952 8.25497 4.48614 8.4716 4.68558 8.62578C4.88501 8.77995 5.13457 8.86185 5.39055 8.85714H10.6924C10.9484 8.86185 11.1979 8.77995 11.3973 8.62578C11.5968 8.4716 11.7334 8.25497 11.7833 8.01381L12.656 3.61905H3.38328M5.5651 11.4762C5.5651 11.7655 5.32089 12 5.01964 12C4.7184 12 4.47419 11.7655 4.47419 11.4762C4.47419 11.1869 4.7184 10.9524 5.01964 10.9524C5.32089 10.9524 5.5651 11.1869 5.5651 11.4762ZM11.5651 11.4762C11.5651 11.7655 11.3209 12 11.0196 12C10.7184 12 10.4742 11.7655 10.4742 11.4762C10.4742 11.1869 10.7184 10.9524 11.0196 10.9524C11.3209 10.9524 11.5651 11.1869 11.5651 11.4762Z" stroke="#302B2F" stroke-linecap="round" stroke-linejoin="round"/>
</svg>
