<svg width="34" height="35" viewBox="0 0 34 35" fill="none" xmlns="http://www.w3.org/2000/svg">
<path d="M32.8577 21.3901L27.7594 16.1695C27.6004 16.0067 27.3928 15.9114 27.1698 15.8756V4.41192C27.1698 2.25142 25.4594 0.5 23.3514 0.5H9.98208C7.8741 0.5 6.16367 2.25142 6.16367 4.41192V15.8756C5.94065 15.9114 5.73314 16.0067 5.57412 16.1695L0.475771 21.3901C0.000649095 21.8766 0.0821364 22.7503 0.660039 23.3421C1.23794 23.9338 2.08925 24.0172 2.56437 23.5307L6.16367 19.8471V30.59C6.16367 32.7486 7.8741 34.5 9.98208 34.5H23.3514C25.4594 34.5 27.1698 32.7486 27.1698 30.59V19.8471L30.7691 23.5307C31.2442 24.0172 32.0956 23.9338 32.6735 23.3421C33.2514 22.7503 33.3328 21.8766 32.8577 21.3901ZM9.88701 15.3157H11.0021V24.1483H9.88701V15.3157ZM9.88701 30.0479L11.0021 26.3981H22.3314L23.4465 30.0479H9.88701ZM23.4465 24.1483H22.3314V15.3157H23.4465V24.1483ZM22.3314 13.1016H11.0021L9.88701 9.45175H23.4465L22.3314 13.1016Z" fill="#D8D1D0"/>
</svg>
