<svg width="13" height="32" viewBox="0 0 13 32" fill="none" xmlns="http://www.w3.org/2000/svg">
<path d="M1.33173 0.0200195H10.972V3.62451H7.54976V14.3784L4.75146 14.7086V3.62418H1.3291L1.33173 0.0200195Z" fill="#D8D1D0"/>
<path d="M7.54495 18.5117L7.55943 19.6601L4.76113 20.0099V18.8011L3.35786 18.9943L3.3605 20.7309C3.3605 20.7309 3.14694 20.6958 2.57257 20.5494C1.36855 20.2422 0 19.5688 0 18.6549C0 17.8975 0.85884 17.4275 1.32923 17.2083C2.22509 16.7909 3.07175 16.4003 4.75702 16.1211C4.83912 16.1075 8.94904 15.6183 8.94904 15.6183V14.165C9.9446 14.3393 10.7064 14.6677 10.9027 14.7587C11.5497 15.0588 12.3013 15.5718 12.3013 16.2235C12.3013 16.8714 11.6361 17.4118 10.7857 17.769C9.58461 18.2736 8.18612 18.4487 7.54495 18.5117Z" fill="#D8D1D0"/>
<path d="M7.54989 23.8048V27.5231L6.85031 29.3859V31.1873L5.45116 31.1875V29.3657L4.75159 27.5231V24.0991L3.35786 24.284V26.03C3.35786 26.03 2.56796 25.9045 1.63229 25.5349C0.487662 25.083 0 24.4606 0 23.9537C0 23.3666 0.672758 22.6805 1.94654 22.2526C2.22426 22.1593 3.07751 21.7434 4.75702 21.4158C4.89144 21.3896 8.94904 20.9211 8.94904 20.9211V19.463C8.94904 19.463 10.0974 19.6557 11.0981 20.1535C11.9326 20.5688 12.3015 21.07 12.3015 21.5861C12.3015 21.8694 12.0585 22.5028 10.8003 23.0608C10.122 23.3615 9.50317 23.4953 8.94904 23.6106C8.53509 23.6967 7.54989 23.8048 7.54989 23.8048Z" fill="#D8D1D0"/>
</svg>
