<svg width="17" height="15" viewBox="0 0 17 15" fill="none" xmlns="http://www.w3.org/2000/svg">
<path d="M1 0.5H3.72727L5.55455 9.42667C5.61689 9.7336 5.78766 10.0093 6.03696 10.2055C6.28626 10.4018 6.5982 10.506 6.91818 10.5H13.5455C13.8654 10.506 14.1774 10.4018 14.4267 10.2055C14.676 10.0093 14.8467 9.7336 14.9091 9.42667L16 3.83333H4.40909M7.13636 13.8333C7.13636 14.2015 6.8311 14.5 6.45455 14.5C6.07799 14.5 5.77273 14.2015 5.77273 13.8333C5.77273 13.4651 6.07799 13.1667 6.45455 13.1667C6.8311 13.1667 7.13636 13.4651 7.13636 13.8333ZM14.6364 13.8333C14.6364 14.2015 14.3311 14.5 13.9545 14.5C13.578 14.5 13.2727 14.2015 13.2727 13.8333C13.2727 13.4651 13.578 13.1667 13.9545 13.1667C14.3311 13.1667 14.6364 13.4651 14.6364 13.8333Z" stroke="#D8D1D0" stroke-linecap="round" stroke-linejoin="round"/>
</svg>
