<svg width="27" height="27" viewBox="0 0 27 27" fill="none" xmlns="http://www.w3.org/2000/svg">
<path d="M22.9945 0.0200195H4.00537C2.0725 0.0200195 0.5 1.58036 0.5 3.49825V22.5418C0.5 24.4597 2.0725 26.02 4.00537 26.02H22.9946C24.9275 26.02 26.5 24.4597 26.5 22.5418V3.49825C26.4998 1.58036 24.9273 0.0200195 22.9945 0.0200195ZM25.4997 22.542C25.4997 23.9083 24.3759 25.0201 22.9945 25.0201H4.00537C2.62389 25.0201 1.50012 23.9083 1.50012 22.542V3.49825C1.50012 2.13176 2.62407 1.02015 4.00537 1.02015H22.9946C24.3761 1.02015 25.4999 2.13193 25.4999 3.49825L25.4997 22.542Z" fill="#D8D1D0"/>
<path d="M13.4998 4.36623C8.72045 4.36623 4.84592 8.24064 4.84592 13.02C4.84592 17.7994 8.72045 21.674 13.4998 21.674C18.279 21.674 22.1535 17.7994 22.1535 13.02C22.1535 8.24079 18.279 4.36623 13.4998 4.36623Z" fill="#D8D1D0"/>
</svg>
