<svg width="15" height="10" viewBox="0 0 15 10" fill="none" xmlns="http://www.w3.org/2000/svg">
<path d="M0.463 8.47643C0.173837 8.773 0.179848 9.24784 0.476425 9.537C0.773002 9.82616 1.24784 9.82015 1.537 9.52358L0.463 8.47643ZM5.80858 5.74551L5.33285 6.32531L5.33285 6.32531L5.80858 5.74551ZM7.18624 6.87589L6.7105 7.45569L6.7105 7.45569L7.18624 6.87589ZM8.96997 6.72055L8.4032 6.22935L8.4032 6.22935L8.96997 6.72055ZM13.9168 2.15786C14.188 1.84485 14.1542 1.37118 13.8412 1.0999C13.5282 0.828619 13.0545 0.862452 12.7832 1.17547L13.9168 2.15786ZM8.12916 7.41497L8.19423 8.16215L8.19423 8.16215L8.12916 7.41497ZM4.9123 5.22769L4.95483 5.97648L4.95483 5.97648L4.9123 5.22769ZM11.4 0.25C10.9858 0.25 10.65 0.585786 10.65 1C10.65 1.41421 10.9858 1.75 11.4 1.75V0.25ZM13.25 3.66667C13.25 4.08089 13.5858 4.41667 14 4.41667C14.4142 4.41667 14.75 4.08089 14.75 3.66667H13.25ZM13.8096 1.19526L14.3466 0.671687L14.3466 0.671687L13.8096 1.19526ZM2.95 1.58333C2.53579 1.58333 2.2 1.91912 2.2 2.33333C2.2 2.74755 2.53579 3.08333 2.95 3.08333V1.58333ZM6.85 3.08333C7.26421 3.08333 7.6 2.74755 7.6 2.33333C7.6 1.91912 7.26421 1.58333 6.85 1.58333V3.08333ZM1.537 9.52358L4.61424 6.36743L3.54024 5.32028L0.463 8.47643L1.537 9.52358ZM5.33285 6.32531L6.7105 7.45569L7.66197 6.29608L6.28432 5.1657L5.33285 6.32531ZM9.53674 7.21174L13.9168 2.15786L12.7832 1.17547L8.4032 6.22935L9.53674 7.21174ZM6.7105 7.45569C6.9225 7.62964 7.13806 7.80852 7.33659 7.93164C7.55322 8.066 7.83947 8.19304 8.19423 8.16215L8.06409 6.6678C8.16037 6.65942 8.20331 6.70412 8.12717 6.6569C8.08708 6.63203 8.03182 6.59287 7.95085 6.52974C7.87015 6.46683 7.77818 6.39143 7.66197 6.29608L6.7105 7.45569ZM8.4032 6.22935C8.30436 6.3434 8.22602 6.43372 8.15672 6.5098C8.08718 6.58613 8.0389 6.63457 8.0031 6.66633C7.9347 6.72703 7.96842 6.67613 8.06409 6.6678L8.19423 8.16215C8.54839 8.1313 8.8084 7.95716 8.99873 7.78827C9.1736 7.63308 9.3562 7.42006 9.53674 7.21174L8.4032 6.22935ZM4.61424 6.36743C4.71395 6.26517 4.79267 6.18449 4.86208 6.11668C4.93168 6.04867 4.97942 6.00601 5.01435 5.97833C5.08046 5.92594 5.04578 5.97131 4.95483 5.97648L4.86976 4.47889C4.53079 4.49815 4.27426 4.65092 4.08268 4.80274C3.90727 4.94175 3.7219 5.13396 3.54024 5.32028L4.61424 6.36743ZM6.28432 5.1657C6.08384 5.0012 5.87855 4.83086 5.68884 4.71231C5.4813 4.58262 5.20909 4.45962 4.86976 4.47889L4.95483 5.97648C4.86353 5.98166 4.82337 5.94027 4.89393 5.98436C4.93137 6.00776 4.98322 6.04461 5.05965 6.10426C5.13586 6.16374 5.22272 6.23495 5.33285 6.32531L6.28432 5.1657ZM11.4 1.75H12.7V0.25H11.4V1.75ZM13.25 2.33333V3.66667H14.75V2.33333H13.25ZM12.7 1.75C12.8561 1.75 12.9796 1.75005 13.0857 1.7528C13.1923 1.75556 13.2624 1.7607 13.3108 1.76738C13.4011 1.77983 13.3392 1.7871 13.2726 1.71884L14.3466 0.671687C14.0897 0.408158 13.7794 0.3178 13.5157 0.281438C13.2755 0.248326 12.9847 0.25 12.7 0.25V1.75ZM14.75 2.33333C14.75 2.03975 14.7515 1.74598 14.7198 1.50434C14.6856 1.24303 14.601 0.932568 14.3466 0.671687L13.2726 1.71884C13.2086 1.65322 13.2192 1.59752 13.2326 1.6993C13.2485 1.82075 13.25 1.99838 13.25 2.33333H14.75ZM2.95 3.08333H6.85V1.58333H2.95V3.08333Z" fill="#D8D1D0"/>
</svg>
