<svg width="16" height="26" viewBox="0 0 16 26" fill="none" xmlns="http://www.w3.org/2000/svg">
<path d="M6.69478 6.24158C6.68989 6.24158 6.68502 6.24151 6.68016 6.24137M6.69478 6.24158L6.68016 6.24137M6.69478 6.24158C7.3794 6.24158 8.15074 6.3448 8.82625 6.23508M6.68016 6.24137C6.41184 6.23364 6.19671 6.0137 6.19671 5.74351V4.64087C6.19671 3.71467 4.59829 3.71001 4.01784 3.85454C3.33774 4.02388 3.32621 4.38356 3.32621 5.00466C3.32621 5.27974 3.10322 5.50271 2.82814 5.50271H1.31399C1.03891 5.50271 0.815918 5.27971 0.815918 5.00463V1.5181C0.815918 1.24302 1.03891 1.02002 1.31399 1.02002H2.67953C3.00628 1.02002 3.23808 1.33433 3.25489 1.66065C3.27771 2.10347 3.60139 2.4341 4.01784 2.55664C4.7123 2.76099 4.55091 1.90747 5.47189 1.46375C6.39286 1.02002 7.75663 1.07707 9.15774 1.40692C10.2515 1.66441 10.8273 1.98606 11.7953 2.55664C13.2728 3.42753 15.087 5.44036 15.1417 5.5013C15.1435 5.50322 15.1439 5.50363 15.1458 5.50545C15.2615 5.62063 15.0912 5.84211 14.9479 5.76404C13.9533 5.22254 12.4676 4.51296 11.2543 4.34884C10.5863 4.25848 10.138 4.26976 9.52997 4.26976C9.14774 4.26976 9.18238 5.04899 9.26081 5.62775C9.30001 5.91694 9.10398 6.18997 8.82625 6.23508M6.68016 6.24137V13.0835M8.82625 6.23508V13.0835M8.82625 13.0835H8.96323C9.23831 13.0835 9.46131 13.3065 9.46131 13.5815V24.5219C9.46131 24.797 9.23831 25.02 8.96323 25.02H6.54316C6.26808 25.02 6.04509 24.797 6.04509 24.5219V13.5815C6.04509 13.3065 6.26808 13.0835 6.54316 13.0835H6.68016M8.82625 13.0835C8.82625 13.0835 8.1768 13.2419 7.75321 13.2419C7.32961 13.2419 6.68016 13.0835 6.68016 13.0835" stroke="#D8D1D0" stroke-linecap="round" stroke-linejoin="round"/>
</svg>
